<svg xmlns="http://www.w3.org/2000/svg" viewBox="0 0 301 328.46"><defs><style>.cls-1{fill:#231f20;}.cls-2{stroke:#231f20;}.cls-2,.cls-3{stroke-miterlimit:10;}.cls-3{fill:none;stroke:#fff;}.cls-4{fill:#fff;}</style></defs><g id="Layer_4" data-name="Layer 4"><path class="cls-1" d="M7.82,32.56c3.22,0,3.23-5,0-5s-3.22,5,0,5Z" transform="translate(0.5 1)"/><rect class="cls-2" x="0.5" y="1" width="300" height="300"/><path class="cls-3" d="M66.3,204.22s14.6,125.44-6.58,117" transform="translate(0.5 1)"/><path class="cls-3" d="M245.07,209.57s-8.92,125.44,4,117" transform="translate(0.5 1)"/><path class="cls-4" d="M151.69,169c-3.86-.06-7.69.51-11.54.49a19.34,19.34,0,0,1-9.51-2.37,29.94,29.94,0,0,1-7.29-6.13,11.9,11.9,0,0,0-4.25-2.77c-1.28-.6-2.31-1.6-3.55-2.26-2.39-1.28-7.06-2.83-8,1-.67,2.62,2,4.5,4.19,5.24a29.82,29.82,0,0,0,5.37,1.13c.82.11,1.65.25,2.48.31,1.43.12-.39,0-.32-.48,0,0,.17.81.17.88a25.08,25.08,0,0,0,.59,4.72,12.66,12.66,0,0,0,2.28,4.9,13.2,13.2,0,0,0,3.52,2.87,21.88,21.88,0,0,1,3.67,2.2,28.82,28.82,0,0,1,3.72,3.43c1.19,1.54,2,3.62,3.4,4.92a2.58,2.58,0,0,0,3.53,0c1.48-1.17,1.26-3.33.94-5a41.16,41.16,0,0,0-1.27-5.12,21,21,0,0,0-6.43-9.77,13.43,13.43,0,0,0-4.62-2.87c-2.5-.63-4,1.63-3.94,3.84a14.49,14.49,0,0,0,1.58,5.56c.79,1.81,1.58,3.61,2.54,5.34a60.18,60.18,0,0,0,3.88,6.08c.78,1.06,1.61,2.09,2.46,3.1a7.18,7.18,0,0,0,2.18,2.07c1.57.79,3.9-.14,3.76-2.16-.22-3.4-3.26-6.16-5.3-8.67-2.21-2.72-4.31-5.5-6.71-8.07s-4.68-4.81-7.15-7.09c-1.22-1.12-2.48-2.2-3.69-3.34-.64-.6-1.23-1.24-1.85-1.86a5.86,5.86,0,0,1-1.18-1.26l-3.93,3c2.67,2.17,5.08,4.58,7.53,7s5,4.7,7.39,7.17a39.74,39.74,0,0,1,5.91,7.52c.8,1.38,1.58,2.81,2.29,4.24a14.25,14.25,0,0,0,2.33,3.87c1.62,1.69,5.14,0,4.17-2.43a55,55,0,0,0-4.7-8.83c-.83-1.32-1.71-2.62-2.63-3.88a13.34,13.34,0,0,0-2.93-3.41,2.53,2.53,0,0,0-3,.39,2.6,2.6,0,0,0-.39,3c1.08,2.4,2.48,4.66,3.69,7a55,55,0,0,0,4.27,6.59c1.59,2.2,3.1,4.44,4.71,6.63.74,1,1.5,2,2.16,3.05a5.35,5.35,0,0,0,2.09,2.37,2.54,2.54,0,0,0,3.76-2.16c.2-2.43-1.1-4.83-2.53-6.69-.76-1-1.63-1.89-2.46-2.82a12.66,12.66,0,0,1-2.16-2.6l.34,1.26v-.26l-2.5,2.5c-.65.06-1.21-.66-.68-.1.22.23.43.46.64.7s.48.61.73.9c1.17,1.39,2.34,2.78,3.44,4.23s2.06,2.81,3.1,4.21c1.23,1.66,3.39,2.29,5,.74,2.52-2.37,2.44-6.16,3.78-9.13,1.24-2.75,4.35-3.28,7-4.11l-2.43-4.18a7.79,7.79,0,0,0-2.44,7,2.53,2.53,0,0,0,2.41,1.83c2.17.2,4.07-1.44,5.45-2.92,1.58-1.71,2.92-3.6,4.35-5.43,1.63-2.1,3.35-4.12,5-6.24a17.35,17.35,0,0,1,2.19-2.88,12,12,0,0,0,1.13-1,6.33,6.33,0,0,0,.56-.72c.32-.48.18-.15,0,0l-3.42-3.42a54.45,54.45,0,0,1-4.2,5c-1.22,1.22-2.92,2.93-2.29,4.83a2.56,2.56,0,0,0,3.07,1.75c1.95-.48,3.36-1.8,5-2.85,1.86-1.2,3.75-2.33,5.58-3.58a33.89,33.89,0,0,0,6.17-5.15c1.52-1.69,3.89-4.23,3.27-6.74a3.27,3.27,0,0,0-4-2.39,7.73,7.73,0,0,0-3.63,2.48c-1.61,1.72-2.9,3.71-4.65,5.3-.83.75-1.72,1.44-2.54,2.22-.49.46-1.24,1.72-1.86,2l2.83,3.67c.68-.89,1.44-1.72,2.08-2.65.52-.74,1-1.53,1.55-2.22s1.26-1.37,1.85-2.09c1.59-1.92,4.51-5.78,1.22-7.72-2-1.2-4,.89-5.55,2a20.85,20.85,0,0,0-4.16,4.48c-1.18,1.62-2.46,3.17-3.59,4.83-.94,1.38-1.86,3.1-1.36,4.81a2.54,2.54,0,0,0,2.42,1.84c3.4-.41,5.37-4.43,6.8-7.17a44.15,44.15,0,0,0,2.47-5.48,17.69,17.69,0,0,0,.73-2.68,8.45,8.45,0,0,0,.21-3.46,3,3,0,0,0-3.77-1.92,5.36,5.36,0,0,0-2.53,1.93,33.71,33.71,0,0,0-3.48,5.49c-1.84,3.47-3.66,6.95-5.78,10.26L171,178a2.92,2.92,0,0,1,.68-1.49c.44-.65.94-1.24,1.39-1.87a19,19,0,0,0,2.89-5.76,2.53,2.53,0,0,0-2.41-3.17c-1.75-.08-3.19.92-4.51,1.94a51.94,51.94,0,0,0-3.92,3.49c-2.25,2.17-3.75,5-6.22,7l3.93,3c1.34-1.79,1.9-4.06,2.58-6.16.38-1.16.75-2.33,1.18-3.47a6.94,6.94,0,0,0,.66-3.29,2.57,2.57,0,0,0-2.5-2.5c-3.3.2-5.89,1.91-8.75,3.36a17.62,17.62,0,0,1-7.31,2,7.39,7.39,0,0,1-6.24-3,29.57,29.57,0,0,1-2.21-3.33c-.34-.57-.67-1.15-1-1.71-.14-.23-.28-.5-.44-.72s0-.34-.06,0l-1.83,2.41c1.34-.54,2.81-.26,4.24-.26,1.64,0,3.27.06,4.91.13l9.95.5c3.29.18,6.59.37,9.89.49,1.61.06,3.22.14,4.83.23l2.68.12c.4,0,.82.06,1.22,0l.66-.09c-.28,0-.37,0-.25,0l.6-4.57c-2.14.43-4.44,0-6.57-.3-2.38-.32-4.74-.67-7.1-1.06-4.94-.8-9.85-1.71-14.78-2.56-10.05-1.74-20.16-3.14-30.28-4.36-2.79-.34-3.42,4.37-.67,4.91,3.92.77,7.92.85,11.89,1.26s7.88.65,11.83.83c7.63.36,15.38.32,22.82,2.27v-4.82a27.16,27.16,0,0,1-5.63.17c-2.15,0-4.29,0-6.44,0-4.29-.07-8.58-.21-12.87-.39-8.52-.37-17-1.07-25.54-1.33l-7.07-.21c-1.14,0-2.28-.1-3.42-.12a22,22,0,0,1-3.63-.09l-.67,4.91a70.89,70.89,0,0,1,8.49-.66c2.84,0,5.67.19,8.5.28q8.51.27,17,.65c5.64.26,11.27.68,16.9.9s11.34.86,17,1.43c3,.31,6,.52,9.07.82,1.29.13,2.57.31,3.86.4.37,0,.78.05,1,.09s.49.15.73.18c-.13,0-.38-.36-.05,0l.51-3.92c-1.21.72-3.18.56-4.54.59a62.33,62.33,0,0,1-6.41-.25c-4.26-.34-8.52-.65-12.77-1s-8.4-.84-12.57-1.49c-2.11-.32-4.2-.7-6.3-1a26.14,26.14,0,0,1-5.62-1.11l.6,4.57c1.15-.58,2.79-.33,4-.22,1.86.18,3.72.4,5.57.64,4.18.53,8.32,1.28,12.48,1.93s8.61,1.2,12.91,1.77c2,.26,3.92.53,5.89.76a17.11,17.11,0,0,1,4.86,1v-4.32c-.94.56-2.85.34-4,.39-1.91.1-3.82.11-5.73.09-3.95,0-7.92-.11-11.87-.28s-7.89-.44-11.83-.66-7.88-.27-11.8-.76l1.27,4.66c-.23.11-.82.14-.39.17.21,0,.42,0,.63,0,.49,0,.88.07,1.23.12.88.12,1.75.31,2.63.45,3.32.51,6.66.91,10,1.38,6.65.95,13.61,1.43,20,3.79l-1.1-4.18c.32-.25-.27,0-.1,0-.38,0-.76,0-1.14,0-.8,0-1.59-.13-2.39-.22-2-.23-4.12-.33-6.18-.55-4.58-.5-9.14-1.22-13.69-2-9.32-1.51-18.64-3.07-28-4.29v5c7.61.75,15.14,2.13,22.67,3.41,3.68.62,7.33,1.34,11,1.91s7.63.84,11.39,1.66l-1.84-2.41a1.69,1.69,0,0,1,1.06-1.57,3.63,3.63,0,0,1-.45.1c.52,0-.39,0-.48,0-.88.06-1.74.22-2.6.36a40,40,0,0,1-7,.36c-2.39,0-4.75-.24-7.13-.41-.81-.06-1.61-.05-2.42-.13a5.22,5.22,0,0,1-.91-.15c-.13,0-.53-.24-.36-.09l-1.1,4.17a11.41,11.41,0,0,1,7.32.17,20.12,20.12,0,0,1,3.2,1.18c.49.23,1.93.7,2.11,1.26l1.15-2.82c-3.18,1.86-7.31,1.24-10.82,1.18-5-.09-10,.22-15,0a2.5,2.5,0,1,0,0,5c8,.61,16.07.56,24.08,1.15,2.8.21,3.42-4.32.67-4.91-4.67-1-9.42-.65-14.15-.91s-9.56-.77-14.36.05c-2.28.39-2.23,3.49-.6,4.57a7.23,7.23,0,0,0,4.22.81h4.54c3.2,0,6.41,0,9.62,0s6.21-.11,9.31-.23l4.64-.2c1.48-.06,2.85-.56,4.31-.18V174c-1.76.65-3.57,1.16-5.33,1.81a25.08,25.08,0,0,0-2.51,1,3.76,3.76,0,0,1-1.39.53l.66,4.91c3.53-1.24,7-2.26,9.93-4.72a2.49,2.49,0,0,0,.39-3,5.2,5.2,0,0,0-5.22-2.15c-1.88.19-3.92.14-5.57,1.21a2.51,2.51,0,0,0-1,3.12,2.57,2.57,0,0,0,3,1.45,56.08,56.08,0,0,0,11.71-2.85l-2.43-4.18c.6-.63.2-.2-.16,0l-.67.3-1.81.81q-3.13,1.4-6.24,2.86c-4.16,2-8.29,4-12.4,6.12l3.67,1.49,0-.07V184a3.86,3.86,0,0,1-.68,1,2.5,2.5,0,0,0,.35-.21c.35-.18.69-.35,1-.51.05,0,.49-.21.22-.1s.18-.06.24-.09a2.23,2.23,0,0,1,.43-.16l-1.92-4.57h0c-2.79,1.72-.36,5.64,2.52,4.31a31.78,31.78,0,0,0,6.72-3.91c1.62-1.27.46-3.61-1.1-4.18-2.57-.92-5.59,1-7.19,2.89a7.48,7.48,0,0,0-1.72,4.33,8,8,0,0,0,.26,2.57,7.58,7.58,0,0,0,.5,1.3l.18.32c.33.72.47.37.4-1l1.1-.64c-.39.12-.34.15.16.08l-.48-.12a6.23,6.23,0,0,0-1-.23,2.6,2.6,0,0,0-3.07,1.75c-.86,2.3.54,4.45,1.58,6.41a18.59,18.59,0,0,0,4.1,5.71,2.55,2.55,0,0,0,3.92-.51,3.9,3.9,0,0,0,.68-3.1c-.1-.52-.31-1-.42-1.51a14,14,0,0,1-.19-1.45,15.89,15.89,0,0,0-.42-2.65c-.09-.34-.21-.67-.29-1s-.08-.4-.07-.21c0-.47,0-.36-.17.35L146.31,190c1-.08-1.44-.44-1.2-.74,0,0,.31.63.11.15a8.08,8.08,0,0,1,.41,1.59,19.49,19.49,0,0,0,.49,2.53,2.52,2.52,0,0,0,4.82,0,18.89,18.89,0,0,0,.26-4.93c0-3,.05-6-.12-8.93a2.5,2.5,0,0,0-5,0c-.24,2.91.69,13.37,5.65,11.17,1.71-.76,2.31-2.63,2.7-4.32.18-.81.32-1.62.5-2.42.09-.38.19-.75.3-1.12s-.06,0,0,.06c0-.13.51-.66-.06,0l-2.43.64c.28.07.25.05-.08-.07s-.3-.24-.1,0c-.21-.26-.23-.27-.08,0s.12.23,0,0c.22.51.36,1.07.57,1.59.63,1.64,1.75,3,3.65,3.11,2.38.09,3.69-1.8,4.78-3.59.61-1,1.34-2,2-3a8.37,8.37,0,0,1,1.61-2.2l-4.18-1.1c-.09-.46-.06,0-.21.21a9.32,9.32,0,0,0-.65,1.56,23.66,23.66,0,0,0-1,2.83c-.61,2.28,2.51,4.42,4.17,2.44a37.17,37.17,0,0,0,2.68-3.92l-4.57-1.93a21.05,21.05,0,0,1-1.44,4.2c-.58,1.54-1.1,3.11-1.65,4.66a10.26,10.26,0,0,1-1.46,3.08,8.47,8.47,0,0,1-2.74,2.28l2.83,3.67a44.46,44.46,0,0,1,5-6c1.78-1.68,4.09-3.05,4.92-5.46.68-2-1.36-3.34-3.08-3.07-1.51.23-2.61,1.32-3.76,2.24s-2.45,2-3.62,3a30.74,30.74,0,0,0-3.09,3.16,18.05,18.05,0,0,1-2.21,2.83l2.43-.64c-3.19-1.29-5.65-4.12-8.29-6.22-3.31-2.64-6.8-5-10.28-7.36s-6.68-4.88-10-7.27a56.26,56.26,0,0,1-8.7-7.53,3.32,3.32,0,0,1-.67-1c-.12-.23-.22-.46-.33-.69a4.7,4.7,0,0,1-.25-.58,17.62,17.62,0,0,1-.59-1.73c-.06-.23-.36-.89-.13-.4a.75.75,0,0,1,0-.26,2.49,2.49,0,0,1-1,1.48h-2.52a39.57,39.57,0,0,1,4.42,3.64c1.4,1.24,2.86,2.4,4.25,3.64,2.9,2.58,5.45,5.46,8.74,7.57,2.81,1.81,5.86,3.12,7.86,5.91a33.3,33.3,0,0,1,2.8,4.7c.38.78.73,1.57,1.06,2.37a9.76,9.76,0,0,1,1,2.42l1.83-2.41c.31-.08.2,0-.09-.08s-.86-.27-1.29-.42a4.91,4.91,0,0,1-.57-.24l-.94-.43a46.19,46.19,0,0,1-6.31-3.84,16.72,16.72,0,0,1-4.64-4.73c-1.44-2.11-3.29-3.89-4.55-6.12l-3.93,3c2.39,2.22,5,4.24,7.17,6.66s4.53,5,7,7.25c1.19,1.09,2.49,2.09,3.6,3.25a30.54,30.54,0,0,0,3.08,3.15c2.37,1.86,5,4.57,8.23,4.39a25.12,25.12,0,0,0,9.25-2.35c3-1.39,5.51-3.73,7.92-5.92,5-4.53,9.44-9.58,14.37-14.17,2.82-2.63,5.52-5.38,8.32-8.05,2.36-2.24,4.57-5,7.35-6.74s.22-6-2.53-4.32c-2.5,1.55-4.39,3.74-6.47,5.78-2.26,2.19-4.49,4.42-6.77,6.59s-4.79,4.44-7.1,6.76-4.47,4.58-6.74,6.83c-4.25,4.21-8.57,8.79-14.61,10.12a10.82,10.82,0,0,1-3.41.52c-1.2-.21-2.59-1.65-3.51-2.39-2.26-1.79-4.09-4-6.26-5.92a88.26,88.26,0,0,1-7.6-7.63,105.51,105.51,0,0,0-7.76-7.34,2.51,2.51,0,0,0-3.93,3c1.41,2.48,3.45,4.52,5,6.87a22.41,22.41,0,0,0,6.29,6,44.52,44.52,0,0,0,6.74,3.95c1.81.82,3.93,1.86,6,1.32a2.52,2.52,0,0,0,1.84-2.41c-.21-2.15-1.27-4.12-2.14-6.06a35.68,35.68,0,0,0-2.94-5.31,19.23,19.23,0,0,0-3.37-4,36.17,36.17,0,0,0-5.2-3.42,28.89,28.89,0,0,1-4.73-3.42c-1.49-1.35-2.87-2.81-4.36-4.16s-3.19-2.69-4.74-4.08a43.94,43.94,0,0,0-5.11-4.13,2.5,2.5,0,0,0-2.52,0c-2.89,1.7-1,5.85,0,8.11,1.39,3.13,4.31,5.51,6.9,7.64,3.61,3,7.57,5.49,11.3,8.31s7.76,5.31,11.5,8.16,7.15,6.61,11.7,8.45a2.52,2.52,0,0,0,2.43-.64,12.43,12.43,0,0,0,2.1-2.68,21.62,21.62,0,0,1,2.56-2.72c1-.92,2-1.79,3-2.64.79-.65,1.73-1.79,2.77-2l-3.07-3.07c-.19.54-1.33,1.17-1.75,1.54-1,.87-2,1.74-2.87,2.68a59,59,0,0,0-4.75,6c-1.24,1.67.85,4.49,2.82,3.67a13.16,13.16,0,0,0,7.07-7.16c.69-1.72,1.23-3.5,1.87-5.25a28.68,28.68,0,0,0,1.84-5.3,2.51,2.51,0,0,0-4.57-1.93,26.84,26.84,0,0,1-1.89,2.91l4.18,2.43c.64-2.39,2.38-4.72,1.84-7.26-.42-2-2.83-2.21-4.17-1.1s-2.33,3.1-3.36,4.65c-.33.5-.69,1-1,1.51-.12.2-.64.85-.58,1s.92.32,1.19.46c.45.23.07.25,0-.07.14.62-.07-.21-.11-.34-.22-.61-.42-1.22-.69-1.8a4.28,4.28,0,0,0-2.9-2.52,2.5,2.5,0,0,0-2.43.64,9.13,9.13,0,0,0-1.73,4.41c-.15.75-.29,1.51-.51,2.24,0,.15-.09.29-.13.43s0-.37,0,0-.11,0,.12-.09c-.22.2-.12.16.28-.11a1.11,1.11,0,0,1,.78-.29l2.16,1.24a13.45,13.45,0,0,1-1.47-7.7h-5q.24,4.22.13,8.45c0,.71,0,1.41,0,2.12,0,.4,0,.79,0,1.19,0,0,0,.74,0,.48s-.05.23-.07.3h4.82c-.87-2.57-.57-7.21-4.46-7.23-3,0-3,3.32-2.47,5.42a17.53,17.53,0,0,1,.49,2.6,21.94,21.94,0,0,0,.32,2.3c0,.14.18.85.32.89-.1,0,.42-1.07-.1-.36l3.92-.51a12.83,12.83,0,0,1-2.94-4c-.43-.82-1.73-2.52-1.45-3.27l-3.08,1.75c1.76.28,3.53,1,5-.39a3.49,3.49,0,0,0,1.22-2.54,6.14,6.14,0,0,0-.92-2.64,2.63,2.63,0,0,1,.19-2.4c.23-.37-.12.08.26-.31a5.44,5.44,0,0,1,1.23-1c.23-.13.32-.11.53-.24s.37-.09.14,0-.22,0,.06.05l-1.1-4.17a28.52,28.52,0,0,1-5.71,3.13l2.52,4.31h0c2.36-1.46.86-5.4-1.93-4.57-2.08.62-5.89,2.14-5.07,5a2.54,2.54,0,0,0,3.67,1.5c4.26-2.15,8.52-4.29,12.83-6.33,2.07-1,4.16-1.91,6.24-2.85a10.42,10.42,0,0,0,3.23-1.66c1.61-1.69,0-5.1-2.43-4.18a55.68,55.68,0,0,1-11.72,2.84l1.93,4.57a5.16,5.16,0,0,1,2.41-.45c.42,0,.84-.11,1.27-.13.68,0,.6.2.27-.26l.39-3c-2.19,1.83-5.09,2.51-7.73,3.43s-2.27,4.88.67,4.91c1.79,0,3.18-1,4.79-1.6,1.89-.73,3.86-1.27,5.77-2,2.19-.8,2.55-4.18,0-4.83a10.58,10.58,0,0,0-4.65-.11,28.87,28.87,0,0,1-4.16.26q-4.67.2-9.31.27t-9.09,0h-6.77c-.48,0-1.08.13-1.47-.13l-.59,4.57c4.29-.73,8.72-.11,13,.13s8.62-.16,12.82.73l.66-4.91c-8-.59-16.06-.54-24.08-1.15v5c5.25.27,10.5-.09,15.76.05,4.26.12,8.81.37,12.63-1.87a2.54,2.54,0,0,0,1.15-2.83c-1.07-3.31-4.9-4.68-7.94-5.67-3.5-1.14-7.29-1.71-10.84-.43-1.63.59-2.64,2.86-1.11,4.18,1.9,1.64,4.31,1.69,6.69,1.81,3,.15,6.05.47,9.1.45a43.25,43.25,0,0,0,4.7-.23c1.16-.14,2.53-.43,3.37-.49,2.19-.15,5.06-.76,5-3.57a2.55,2.55,0,0,0-1.83-2.41c-3.76-.82-7.6-1.07-11.39-1.66s-7.67-1.35-11.5-2c-7.82-1.32-15.63-2.72-23.52-3.5a2.52,2.52,0,0,0-2.5,2.5,2.55,2.55,0,0,0,2.5,2.5c9.73,1.27,19.41,2.95,29.1,4.5,4.92.79,9.85,1.51,14.81,2,1.89.17,3.8.37,5.7.51a7.43,7.43,0,0,0,5.44-1.43c1.62-1.28.45-3.61-1.11-4.18-6.78-2.52-14.3-3-21.41-4-3.16-.45-6.43-.8-9.46-1.34-2.26-.4-4.84-1.07-7-.07a2.53,2.53,0,0,0-1.15,2.83,2.63,2.63,0,0,0,2.41,1.83c4,.5,8,.54,12.05.77,4.19.24,8.37.52,12.56.69q6,.22,12.09.25c2,0,4-.07,6-.19,1.76-.1,3.49-.06,5.06-1s1.79-3.55,0-4.32c-3.85-1.65-8.18-1.77-12.3-2.32-4.51-.61-9-1.14-13.54-1.88s-9.18-1.51-13.8-2.07c-3.63-.44-7.74-1.35-11.16.38-2.1,1.06-1.25,3.87.59,4.57a29,29,0,0,0,6,1.18c2.29.35,4.57.75,6.86,1.09,4.45.67,8.92,1.16,13.41,1.57s8.84.75,13.26,1.07a48.31,48.31,0,0,0,6.91.11c1.91-.13,3.89-.2,5.58-1.21a2.54,2.54,0,0,0,.51-3.92c-1.4-1.66-3.85-1.65-5.82-1.81-2.69-.22-5.37-.55-8.05-.78-5.83-.49-11.63-1.33-17.47-1.65-11.68-.65-23.36-1.25-35.06-1.64-3.25-.11-6.5-.27-9.75-.35a73.56,73.56,0,0,0-10,.64A2.52,2.52,0,0,0,95,157.52a2.47,2.47,0,0,0,1.79,2.74,46.36,46.36,0,0,0,6.67.33l6.34.21c4.46.13,8.9.33,13.35.59,8.75.5,17.5,1,26.26,1.17,2.48.05,4.95.08,7.43.07a33.32,33.32,0,0,0,7.2-.35c2.45-.53,2.32-4.21,0-4.82-7.55-2-15.41-2.06-23.17-2.41-3.87-.17-7.74-.38-11.6-.75s-7.9-.45-11.76-1.2l-.66,4.91c10.17,1.23,20.31,2.67,30.41,4.43,5,.88,10,1.8,15,2.58,2.5.4,5,.75,7.54,1.08a21.1,21.1,0,0,0,7.09,0c2.09-.42,2.45-3.6.6-4.57-1.56-.81-3.19-.62-4.89-.69s-3.56-.2-5.34-.26c-3.62-.14-7.23-.33-10.85-.52l-10.67-.54q-2.57-.12-5.13-.12c-1.74,0-3.46-.22-5.11.44a2.61,2.61,0,0,0-1.84,2.41c0,1.52.89,2.72,1.62,4a46.55,46.55,0,0,0,2.71,4.22c2,2.71,4.69,4.87,8.14,5.38a19.47,19.47,0,0,0,9.83-1.36,34.43,34.43,0,0,0,4.24-2,11,11,0,0,1,4.49-1.74l-2.5-2.5a4.93,4.93,0,0,1-.61,2.29c-.38,1-.71,2.09-1.05,3.14a16.14,16.14,0,0,1-2.08,5,2.47,2.47,0,0,0,.65,3.22,2.56,2.56,0,0,0,3.28-.19c2.17-1.72,3.56-4.11,5.4-6.13a42.19,42.19,0,0,1,3.14-3c.61-.55,1.86-1.84,2.57-1.81l-2.41-3.16a16.35,16.35,0,0,1-2.9,5.24c-1.12,1.46-2.45,3.25-2.24,5.21.26,2.4,3.24,3.48,4.66,1.26,2.23-3.49,4.09-7.17,6.07-10.8.63-1.16,1.3-2.32,2-3.41.11-.15.51-.71.42-.6s.34-.4.48-.53.57-.37.11-.15c.3-.15-.39.11-.49.12a2.17,2.17,0,0,1-1.57-.48l-.73-1.77a18.93,18.93,0,0,1-2.53,7.87,34.26,34.26,0,0,1-1.88,3.41c-.26.39-.55.75-.85,1.12l-.42.53c-.48.55-.75.33.38.2l2.41,1.83c0-.08.07.55,0,.51s.33-.63.35-.67c.23-.38.48-.75.73-1.11,1-1.37,2-2.67,3-4,1.47-2,3.35-4.26,5.7-5.27h-2.52a1.87,1.87,0,0,1-.89-2.07l0,.16c0,.3.14-.22-.06.11s-.5.82-.79,1.21-1,1.16-1.49,1.74c-1.89,2.09-3.46,4.49-5.18,6.72-1.27,1.66.87,4.5,2.82,3.68,2.16-.91,3.43-2.76,5.17-4.25a35.85,35.85,0,0,0,4.56-4.74,25.45,25.45,0,0,1,1.73-2,8,8,0,0,1,.79-.75c-.12.07-.05,0,.2-.14s.33-.18.12-.07a1.78,1.78,0,0,1-2.1-1.24,1.36,1.36,0,0,1,0-.8c0,.14-.23.63,0,.05a8,8,0,0,1-.94,1.5c.24-.31-.33.42-.39.48-.21.26-.43.51-.66.76s-.72.78-1.09,1.16a20.83,20.83,0,0,1-2.38,2c-1.85,1.35-3.78,2.6-5.72,3.81-1,.6-1.9,1.19-2.82,1.85a7.7,7.7,0,0,1-2.52,1.46l3.07,1.74c-.35,1.39-.37,1.79-.07,1.21.16-.23.17-.25,0-.08a8.11,8.11,0,0,1,.55-.62c.39-.41.81-.79,1.19-1.2,1.55-1.65,2.89-3.52,4.27-5.31a2.51,2.51,0,0,0-.4-3,2.6,2.6,0,0,0-3-.39c-.84.43-1.3,1.33-1.84,1.84a13.52,13.52,0,0,0-2.46,2.66,54,54,0,0,1-4.49,6c-1.51,1.74-2.83,3.64-4.32,5.41a20.1,20.1,0,0,1-1.87,2,3.69,3.69,0,0,1-.69.55c-.3.19-.09.09-.26.14-.34.09.45,0-.17,0l2.42,1.84s.14-.67.24-.93a2.79,2.79,0,0,1,.9-1.22c2-1.59-.15-4.91-2.43-4.18-3.3,1.06-6.77,1.94-9,4.84a14.68,14.68,0,0,0-2.24,5.12c-.24.89-.45,1.78-.74,2.65a8.78,8.78,0,0,1-.33.85c-.11.23-.24.46-.37.68-.48.62-.18.56.88-.17l1.26.34c.26.12.28.4,0,0s-.37-.55-.56-.81c-.57-.79-1.17-1.56-1.76-2.34-1.1-1.46-2.2-2.91-3.37-4.32s-3.19-4.66-5.52-4.47a2.55,2.55,0,0,0-2.5,2.5,4.92,4.92,0,0,0,1.68,3.23c.9,1,1.76,2.07,2.68,3.08,1.17,1.29,2.61,2.95,2.46,4.8l3.77-2.16a1,1,0,0,1,.15.19,4,4,0,0,0-.32-.52c-.25-.42-.52-.82-.8-1.22-.72-1-1.47-2-2.2-3-1.53-2.12-3-4.27-4.52-6.39a49.19,49.19,0,0,1-3.85-6.06c-1.17-2.28-2.54-4.46-3.6-6.79l-3.42,3.42a6.57,6.57,0,0,1,.52.78c.37.52.77,1,1.14,1.56.82,1.15,1.6,2.33,2.35,3.53a47.3,47.3,0,0,1,4,7.26l4.18-2.44a13.42,13.42,0,0,1-1.77-3.3c-.78-1.46-1.54-2.94-2.4-4.35a47,47,0,0,0-6.36-8c-2.33-2.41-4.82-4.66-7.22-7s-5-4.93-7.69-7.15a2.51,2.51,0,0,0-3.93,3,14.46,14.46,0,0,0,2.88,3.23c1.1,1.1,2.29,2.12,3.45,3.17q3.64,3.3,7.06,6.84a88.24,88.24,0,0,1,6.32,7.34c1.09,1.38,2.22,2.73,3.32,4.1.56.71,2.11,2.13,2.17,3.09l3.76-2.16c-.49-.25-.91-1-1.31-1.46-.62-.74-1.22-1.49-1.79-2.28a61.21,61.21,0,0,1-3.39-5.31,57.72,57.72,0,0,1-2.55-5.25,18.7,18.7,0,0,1-.83-2.15,5.49,5.49,0,0,1-.27-1,.77.77,0,0,1,0-.34c.08-.72-.16-.48-.73.72l-1.27.34c-.5,0-.54-.17,0,.17.33.19.65.39,1,.61a14.07,14.07,0,0,1,1.87,1.47,15.67,15.67,0,0,1,3.2,4.17,21.47,21.47,0,0,1,1.85,5.37c.16.7.31,1.41.46,2.12a4.83,4.83,0,0,0,.12.64c.07,1-.12.06.29-.26h3.53c-.93-.85-1.6-2.49-2.35-3.56a16.58,16.58,0,0,0-3.23-3.46,32.66,32.66,0,0,0-3.58-2.85c-1.06-.61-2.16-1.15-3.2-1.81-2.16-1.39-2.95-3.59-3.31-6.08-.19-1.37.06-2.71-.41-4.06a4.17,4.17,0,0,0-3.83-3,37,37,0,0,1-4.06-.55,27.42,27.42,0,0,1-2.68-.63l-.55-.16c.7.21-.12-.09-.29-.18s-.66-.33-.61-.48l.34.61c-.1,1.43-.6,2.14-1.49,2.13a2.82,2.82,0,0,0,.62.2,13.8,13.8,0,0,1,3.41,1.86,22.11,22.11,0,0,0,3.35,1.73c1.32.62,2.18,2,3.27,3,2.42,2.12,4.63,4.27,7.54,5.73a24.64,24.64,0,0,0,10.63,2.55c4,.08,8-.54,12-.48,3.22,0,3.22-5,0-5Z" transform="translate(0.5 1)"/><path class="cls-4" d="M79.47,71.71c2.88-2.57,7.14-3.87,10.8-4.89a24.92,24.92,0,0,1,7-1c2.31,0,4.6.38,6.89.62a142.33,142.33,0,0,1,14.41,2,67.61,67.61,0,0,1,6.59,1.67,23.68,23.68,0,0,0,3.52.83,29.2,29.2,0,0,1,3,1c3.11.83,4.44-4,1.33-4.82-.72-.19-1.4-.65-2.15-.85-1-.26-2.09-.3-3.12-.58-1.81-.5-3.55-1.11-5.39-1.51-4.08-.9-8.16-1.61-12.31-2.12-3.94-.48-7.94-1-11.91-1.25a30.88,30.88,0,0,0-11.5,1.86c-3.85,1.32-7.68,2.7-10.76,5.44-2.41,2.15,1.14,5.67,3.53,3.54Z" transform="translate(0.5 1)"/><path class="cls-4" d="M185.71,83.36c2.4-2.49,4.31-5.54,7-7.69a21.25,21.25,0,0,1,4.82-2.57c1.67-.71,3.3-1.51,5-2.12a64.78,64.78,0,0,1,11.33-3.07A84.32,84.32,0,0,1,226,67.07a35.49,35.49,0,0,1,6.68.32,59.42,59.42,0,0,0,7,1.17c3.21.19,3.2-4.81,0-5a52,52,0,0,1-5.92-1,38.08,38.08,0,0,0-6.57-.47,98.9,98.9,0,0,0-13,.78,66.74,66.74,0,0,0-12.12,3c-2,.66-3.8,1.52-5.69,2.34a37.92,37.92,0,0,0-5.15,2.45c-3.75,2.33-6.09,6.06-9.1,9.17-2.23,2.32,1.3,5.86,3.54,3.54Z" transform="translate(0.5 1)"/></g><g id="Layer_2" data-name="Layer 2"><path class="cls-3" d="M108.21,44.44S64.56,63.34,46.46,87.12c-7.28,9.57-14,20.09-17.4,32.57-14,51.79,77.2,130.94,110.42,133.87s109.19-27.36,134.86-83.38c0,0,30.94-69.06-20.53-98.38,0,0-33.87-27.68-38.11-27.36S108.21,44.44,108.21,44.44Z" transform="translate(0.5 1)"/><path class="cls-3" d="M40.13,11.22s-24.43,13-7.49,46.9L48.58,84.49c-6.87-40-1.93-49.14,44.2-32.46Z" transform="translate(0.5 1)"/><path class="cls-3" d="M222.36,47.86s42.4-40.68,42.76-44.27S294.76-10.88,292.29,29L271.46,86.89C276.76,25.12,266.18,26.18,222.36,47.86Z" transform="translate(0.5 1)"/><path class="cls-3" d="M76.65,86.89s-34.24-4.6-21.53,24.7c0,0,18.7,27.17,47.64,2.82C102.76,114.41,109.82,86.55,76.65,86.89Z" transform="translate(0.5 1)"/><path class="cls-3" d="M230.65,85.15s-34.23-4.59-21.53,24.7c0,0,18.71,27.18,47.65,2.82C256.77,112.67,263.83,84.81,230.65,85.15Z" transform="translate(0.5 1)"/><path class="cls-3" d="M71.71,94.29c-2.12,5.3-7.06,20.12,8.11,19.06,0,0,15.53-6.7,6.71-19.06Z" transform="translate(0.5 1)"/><path class="cls-3" d="M219.94,91.12h12s9.88,10.23,1.41,20.12c0,0-15.17,7.11-17.29-7.39C216.06,103.85,212.88,97.12,219.94,91.12Z" transform="translate(0.5 1)"/><path class="cls-3" d="M103.39,156.06s35,37.87,35.73,39.88c2.12,3.53,10.88,4.59,13.76,0l31.77-33.18Z" transform="translate(0.5 1)"/><path class="cls-3" d="M97.47,219.24S116.81,228.06,144,221c0,0,12.74,11.12,39.57,2.74" transform="translate(0.5 1)"/></g></svg>